{"title":"The Hobbit The Desolation of Smaug 2013 BDRip 1080p HYPERHD.mkv","uid":9817833,"size":20438885371,"categoryP":"video","categoryS":"hd___movies","magnet":"?xt=urn:btih:41b6bcef6e3a8ab242514ad697ed347e918e7ea2&amp;dn=The+Hobbit+The+Desolation+of+Smaug+2013+BDRip+1080p+HYPERHD.mkv&amp;tr=udp%3A%2F%2Ftracker.openbittorrent.com%3A80&amp;tr=udp%3A%2F%2Fopen.demonii.com%3A1337&amp;tr=udp%3A%2F%2Ftracker.coppersurfer.tk%3A6969&amp;tr=udp%3A%2F%2Fexodus.desync.com%3A6969","seeders":1,"leechers":0,"uploader":"ABSTAIN","files":1,"time":1395642594,"description":"General\nUnique ID                      : 235289467817240405615297619758696279358 (0xB1031A6923F4CF67BD525CAC6796AD3E)\nComplete name                  : D:The Hobbit The Desolation of Smaug 2013 BDRip 1080p HYPERHD.mkv\nFormat                         : Matroska\nFormat version                 : Version 4 / Version 2\nFile size                      : 19.0 GiB\nDuration                       : 2h 41mn\nOverall bit rate               : 16.9 Mbps\nMovie name                     : The Hobbit: The Desolation of Smaug 2013 BDRip 1080p HYPERHD\nEncoded date                   : UTC 2014-03-24 04:49:47\nWriting application            : mkvmerge v6.8.0 ('Theme for Great Cities') 64bit built on Mar  2 2014 21:34:26\nWriting library                : libebml v1.3.0 + libmatroska v1.4.1\nAttachment                     : Yes\n\nVideo\nID                             : 1\nFormat                         : AVC\nFormat/Info                    : Advanced Video Codec\nFormat profile                 : &lt;a class=&quot;__cf_email__&quot; href=&quot;/cdn-cgi/l/email-protection&quot; data-cfemail=&quot;6129080609212d554f50&quot;&gt;[email&amp;#160;protected]&lt;/a&gt;&lt;script cf-hash='f9e31' type=&quot;text/javascript&quot;&gt;\n/* &lt;![CDATA[ */!function(){try{var t=&quot;currentScript&quot;in document?document.currentScript:function(){for(var t=document.getElementsByTagName(&quot;script&quot;),e=t.length;e--;)if(t[e].getAttribute(&quot;cf-hash&quot;))return t[e]}();if(t&amp;&amp;t.previousSibling){var e,r,n,i,c=t.previousSibling,a=c.getAttribute(&quot;data-cfemail&quot;);if(a){for(e=&quot;&quot;,r=parseInt(a.substr(0,2),16),n=2;a.length-n;n+=2)i=parseInt(a.substr(n,2),16)^r,e+=String.fromCharCode(i);e=document.createTextNode(e),c.parentNode.replaceChild(e,c)}}}catch(u){}}();/* ]]&gt; */&lt;/script&gt;\nFormat settings, CABAC         : Yes\nFormat settings, ReFrames      : 5 frames\nCodec ID                       : V_MPEG4/ISO/AVC\nDuration                       : 2h 41mn\nBit rate                       : 13.9 Mbps\nWidth                          : 1 920 pixels\nHeight                         : 800 pixels\nDisplay aspect ratio           : 2.40:1\nFrame rate mode                : Constant\nFrame rate                     : 23.976 fps\nColor space                    : YUV\nChroma subsampling             : 4:2:0\nBit depth                      : 8 bits\nScan type                      : Progressive\nBits/(Pixel*Frame)             : 0.379\nStream size                    : 15.4 GiB (81%)\nTitle                          : The Hobbit: The Desolation of Smaug 2013 BDRip 1080p HYPERHD\nWriting library                : x264 core 138 r2358kMod 9e941d1\nEncoding settings              : cabac=1 / ref=5 / deblock=1:-3:-3 / analyse=0x3:0x113 / me=tesa / subme=11 / psy=1 / fade_compensate=0.00 / psy_rd=0.90:0.00 / mixed_ref=1 / me_range=32 / chroma_me=1 / trellis=2 / 8x8dct=1 / cqm=0 / deadzone=21,11 / fast_pskip=0 / chroma_qp_offset=-2 / threads=18 / lookahead_threads=3 / sliced_threads=0 / nr=0 / decimate=0 / interlaced=0 / bluray_compat=0 / constrained_intra=0 / bframes=8 / b_pyramid=2 / b_adapt=2 / b_bias=0 / direct=3 / weightb=1 / open_gop=0 / weightp=2 / keyint=250 / keyint_min=23 / scenecut=40 / intra_refresh=0 / rc_lookahead=40 / rc=2pass / mbtree=0 / bitrate=13950 / ratetol=1.0 / qcomp=0.70 / qpmin=10 / qpmax=69 / qpstep=4 / cplxblur=20.0 / qblur=0.5 / vbv_maxrate=40000 / vbv_bufsize=30000 / nal_hrd=none / ip_ratio=1.35 / pb_ratio=1.10 / aq=3:0.60\nLanguage                       : English\nDefault                        : Yes\nForced                         : No\n\nAudio #1\nID                             : 2\nFormat                         : AC-3\nFormat/Info                    : Audio Coding 3\nMode extension                 : CM (complete main)\nFormat settings, Endianness    : Big\nCodec ID                       : A_AC3\nDuration                       : 2h 41mn\nBit rate mode                  : Constant\nBit rate                       : 384 Kbps\nChannel count                  : 6 channels\nChannel positions              : Front: L C R, Side: L R, LFE\nSampling rate                  : 48.0 KHz\nBit depth                      : 16 bits\nCompression mode               : Lossy\nStream size                    : 443 MiB (2%)\nTitle                          : Dub iTunes Russia\nLanguage                       : Russian\nDefault                        : Yes\nForced                         : No\n\nAudio #2\nID                             : 3\nFormat                         : AC-3\nFormat/Info                    : Audio Coding 3\nMode extension                 : CM (complete main)\nFormat settings, Endianness    : Big\nCodec ID                       : A_AC3\nDuration                       : 2h 41mn\nBit rate mode                  : Constant\nBit rate                       : 192 Kbps\nChannel count                  : 2 channels\nChannel positions              : Front: L R\nSampling rate                  : 48.0 KHz\nBit depth                      : 16 bits\nCompression mode               : Lossy\nStream size                    : 222 MiB (1%)\nTitle                          : VO Pashaup\nLanguage                       : Russian\nDefault                        : No\nForced                         : No\n\nAudio #3\nID                             : 4\nFormat                         : AC-3\nFormat/Info                    : Audio Coding 3\nMode extension                 : CM (complete main)\nFormat settings, Endianness    : Big\nCodec ID                       : A_AC3\nDuration                       : 2h 41mn\nBit rate mode                  : Constant\nBit rate                       : 192 Kbps\nChannel count                  : 2 channels\nChannel positions              : Front: L R\nSampling rate                  : 48.0 KHz\nBit depth                      : 16 bits\nCompression mode               : Lossy\nStream size                    : 222 MiB (1%)\nTitle                          : Dub iTunes Russia\nLanguage                       : Ukrainian\nDefault                        : No\nForced                         : No\n\nAudio #4\nID                             : 5\nFormat                         : DTS\nFormat/Info                    : Digital Theater Systems\nMode                           : 16\nFormat settings, Endianness    : Big\nCodec ID                       : A_DTS\nDuration                       : 2h 41mn\nBit rate mode                  : Constant\nBit rate                       : 1 509 Kbps\nChannel count                  : 6 channels\nChannel positions              : Front: L C R, Side: L R, LFE\nSampling rate                  : 48.0 KHz\nBit depth                      : 24 bits\nCompression mode               : Lossy\nStream size                    : 1.70 GiB (9%)\nTitle                          : Original\nLanguage                       : English\nDefault                        : No\nForced                         : No\n\nAudio #5\nID                             : 6\nFormat                         : AC-3\nFormat/Info                    : Audio Coding 3\nMode extension                 : CM (complete main)\nFormat settings, Endianness    : Big\nCodec ID                       : A_AC3\nDuration                       : 2h 41mn\nBit rate mode                  : Constant\nBit rate                       : 640 Kbps\nChannel count                  : 6 channels\nChannel positions              : Front: L C R, Side: L R, LFE\nSampling rate                  : 48.0 KHz\nBit depth                      : 16 bits\nCompression mode               : Lossy\nStream size                    : 738 MiB (4%)\nTitle                          : Original\nLanguage                       : English\nDefault                        : No\nForced                         : No\n\nText #1\nID                             : 7\nFormat                         : UTF-8\nCodec ID                       : S_TEXT/UTF8\nCodec ID/Info                  : UTF-8 Plain Text\nTitle                          : Forced iTunes Russia\nLanguage                       : Russian\nDefault                        : Yes\nForced                         : No\n\nText #2\nID                             : 8\nFormat                         : UTF-8\nCodec ID                       : S_TEXT/UTF8\nCodec ID/Info                  : UTF-8 Plain Text\nTitle                          : Full iTunes Russia\nLanguage                       : Russian\nDefault                        : No\nForced                         : No\n\nText #3\nID                             : 9\nFormat                         : UTF-8\nCodec ID                       : S_TEXT/UTF8\nCodec ID/Info                  : UTF-8 Plain Text\nTitle                          : Full Notabenoid\nLanguage                       : Russian\nDefault                        : No\nForced                         : No\n\nText #4\nID                             : 10\nFormat                         : UTF-8\nCodec ID                       : S_TEXT/UTF8\nCodec ID/Info                  : UTF-8 Plain Text\nTitle                          : Forced iTunes Russia\nLanguage                       : Ukrainian\nDefault                        : No\nForced                         : No\n\nText #5\nID                             : 11\nFormat                         : UTF-8\nCodec ID                       : S_TEXT/UTF8\nCodec ID/Info                  : UTF-8 Plain Text\nTitle                          : Full iTunes Russia\nLanguage                       : Ukrainian\nDefault                        : No\nForced                         : No\n\nText #6\nID                             : 12\nFormat                         : UTF-8\nCodec ID                       : S_TEXT/UTF8\nCodec ID/Info                  : UTF-8 Plain Text\nTitle                          : Full\nLanguage                       : English\nDefault                        : No\nForced                         : No\n\nText #7\nID                             : 13\nFormat                         : UTF-8\nCodec ID                       : S_TEXT/UTF8\nCodec ID/Info                  : UTF-8 Plain Text\nTitle                          : SDH\nLanguage                       : English\nDefault                        : No\nForced                         : No\n\nText #8\nID                             : 14\nFormat                         : UTF-8\nCodec ID                       : S_TEXT/UTF8\nCodec ID/Info                  : UTF-8 Plain Text\nTitle                          : SDH Colored\nLanguage                       : English\nDefault                        : No\nForced                         : No\n\nText #9\nID                             : 15\nFormat                         : PGS\nMuxing mode                    : zlib\nCodec ID                       : S_HDMV/PGS\nCodec ID/Info                  : The same subtitle format used on BDs/HD-DVDs\nTitle                          : Full\nLanguage                       : French\nDefault                        : No\nForced                         : No\n\nText #10\nID                             : 16\nFormat                         : PGS\nMuxing mode                    : zlib\nCodec ID                       : S_HDMV/PGS\nCodec ID/Info                  : The same subtitle format used on BDs/HD-DVDs\nTitle                          : Full\nLanguage                       : Portuguese\nDefault                        : No\nForced                         : No\n\nText #11\nID                             : 17\nFormat                         : UTF-8\nCodec ID                       : S_TEXT/UTF8\nCodec ID/Info                  : UTF-8 Plain Text\nTitle                          : Full\nLanguage                       : Romanian\nDefault                        : No\nForced                         : No\n\nText #12\nID                             : 18\nFormat                         : PGS\nMuxing mode                    : zlib\nCodec ID                       : S_HDMV/PGS\nCodec ID/Info                  : The same subtitle format used on BDs/HD-DVDs\nTitle                          : Full\nLanguage                       : Spanish\nDefault                        : No\nForced                         : No\n\nMenu\n00:00:00.000                   : en:The Quest For Erebor\n00:05:44.094                   : en:Wilderland\n00:10:10.985                   : en:The Master Summons\n00:11:10.128                   : en:A Commander Of Legions\n00:13:50.204                   : en:Queer Lodgings\n00:17:12.657                   : en:The Elven-Gate\n00:21:25.326                   : en:Mirkwood\n00:24:33.472                   : en:Flies And Spiders\n00:33:03.273                   : en:The Woodland Realm\n00:36:05.747                   : en:THe Elvenking\n00:39:38.960                   : en:King And Captain\n00:41:29.654                   : en:Feast Of Starlight\n00:44:27.290                   : en:Barrels Out Of Bound\n00:55:01.757                   : en:The High Fells\n00:58:41.768                   : en:Bard The Bowman\n01:02:05.138                   : en:The Nature Of Evil\n01:05:29.592                   : en:Smuggled Cargo\n01:09:06.267                   : en:Lake-Town\n01:11:29.118                   : en:The Master Of Lake-Town\n01:13:11.762                   : en:The Home Of Bard\n01:19:14.959                   : en:&quot;It is our fight&quot;\n01:20:48.469                   : en:The Prophecy\n01:23:12.529                   : en:A Warm Welcome\n01:27:09.641                   : en:The Lonely Mountain\n01:30:45.482                   : en:A Spell Of Concealment\n01:33:29.813                   : en:On The Doorstep\n01:41:57.194                   : en:Kingsfoil\n01:42:24.472                   : en:The Courage Of Hobbits\n01:44:08.033                   : en:The Enemy Revealed\n01:47:34.114                   : en:Inside Information\n01:56:46.333                   : en:The Black Arrow\n01:57:28.917                   : en:In The Dragon's Lair\n01:58:03.410                   : en:Under Arrest\n01:59:42.300                   : en:Bilbo The Burgler\n02:01:30.575                   : en:Smaug The Magnificent\n02:04:04.312                   : en:Orc Attack\n02:07:58.462                   : en:Confrontations\n02:09:43.109                   : en:Elvish Medicine\n02:10:58.642                   : en:Hunter And Hunted\n02:12:31.443                   : en:&quot;She Walks In Starlight&quot;\n02:13:54.318                   : en:A Desperate Plan\n02:16:25.427                   : en:Duel In Lake Town\n02:18:51.490                   : en:The Forges Relit\n02:26:03.588                   : en:Smaug The Golden\n02:30:51.209                   : en:Credits","torrent":{"xt":"urn:btih:41b6bcef6e3a8ab242514ad697ed347e918e7ea2","amp;dn":"The+Hobbit+The+Desolation+of+Smaug+2013+BDRip+1080p+HYPERHD.mkv","amp;tr":["udp%3A%2F%2Ftracker.openbittorrent.com%3A80","udp%3A%2F%2Fopen.demonii.com%3A1337","udp%3A%2F%2Ftracker.coppersurfer.tk%3A6969","udp%3A%2F%2Fexodus.desync.com%3A6969"],"infoHash":"41b6bcef6e3a8ab242514ad697ed347e918e7ea2","infoHashBuffer":{"type":"Buffer","data":[65,182,188,239,110,58,138,178,66,81,74,214,151,237,52,126,145,142,126,162]},"announce":[],"urlList":[]}}